<svg aria-hidden="true" style="position: absolute; width: 0; height: 0; overflow: hidden;" version="1.1" xmlns="http://www.w3.org/2000/svg" xmlns:xlink="http://www.w3.org/1999/xlink">
<defs>
<!-- using icons.getbootstrap.com only-->

<symbol id="icon-quote"  width="81" height="56" viewBox="0 0 81 56" fill="none" xmlns="http://www.w3.org/2000/svg">
<path d="M80.5161 55.2944H42.811V34.5566C42.811 21.9883 50.7388 10.4834 66.5942 0.0419922L75.0054 7.00293C68.4312 13.5771 64.854 19.5713 64.2739 24.9854H80.5161V55.2944ZM38.1704 55.2944H0.320312V34.5566C0.320312 21.9883 8.24805 10.4834 24.1035 0.0419922L32.5146 7.00293C25.9404 13.5771 22.3633 19.5713 21.7832 24.9854H38.1704V55.2944Z" fill="#66FF00" fill-opacity="0.65"/>
</symbol>






<symbol id="icon-telephone" xmlns="http://www.w3.org/2000/svg"  class="bi bi-telephone-fill" viewBox="0 0 16 16">
  <path fill-rule="evenodd" d="M1.885.511a1.745 1.745 0 0 1 2.61.163L6.29 2.98c.329.423.445.974.315 1.494l-.547 2.19a.678.678 0 0 0 .178.643l2.457 2.457a.678.678 0 0 0 .644.178l2.189-.547a1.745 1.745 0 0 1 1.494.315l2.306 1.794c.829.645.905 1.87.163 2.611l-1.034 1.034c-.74.74-1.846 1.065-2.877.702a18.634 18.634 0 0 1-7.01-4.42 18.634 18.634 0 0 1-4.42-7.009c-.362-1.03-.037-2.137.703-2.877L1.885.511z"/>
</symbol>

<!-- +++++++++++++++ social media +++++++++++++ -->
<symbol id="icon-facebook" xmlns="http://www.w3.org/2000/svg"   viewBox="0 0 16 16">
  <path d="M16 8.049c0-4.446-3.582-8.05-8-8.05C3.58 0-.002 3.603-.002 8.05c0 4.017 2.926 7.347 6.75 7.951v-5.625h-2.03V8.05H6.75V6.275c0-2.017 1.195-3.131 3.022-3.131.876 0 1.791.157 1.791.157v1.98h-1.009c-.993 0-1.303.621-1.303 1.258v1.51h2.218l-.354 2.326H9.25V16c3.824-.604 6.75-3.934 6.75-7.951z"/>
</symbol>

<symbol id="icon-instagram" xmlns="http://www.w3.org/2000/svg"  class="bi bi-instagram" viewBox="0 0 16 16">
  <path d="M8 0C5.829 0 5.556.01 4.703.048 3.85.088 3.269.222 2.76.42a3.917 3.917 0 0 0-1.417.923A3.927 3.927 0 0 0 .42 2.76C.222 3.268.087 3.85.048 4.7.01 5.555 0 5.827 0 8.001c0 2.172.01 2.444.048 3.297.04.852.174 1.433.372 1.942.205.526.478.972.923 1.417.444.445.89.719 1.416.923.51.198 1.09.333 1.942.372C5.555 15.99 5.827 16 8 16s2.444-.01 3.298-.048c.851-.04 1.434-.174 1.943-.372a3.916 3.916 0 0 0 1.416-.923c.445-.445.718-.891.923-1.417.197-.509.332-1.09.372-1.942C15.99 10.445 16 10.173 16 8s-.01-2.445-.048-3.299c-.04-.851-.175-1.433-.372-1.941a3.926 3.926 0 0 0-.923-1.417A3.911 3.911 0 0 0 13.24.42c-.51-.198-1.092-.333-1.943-.372C10.443.01 10.172 0 7.998 0h.003zm-.717 1.442h.718c2.136 0 2.389.007 3.232.046.78.035 1.204.166 1.486.275.373.145.64.319.92.599.28.28.453.546.598.92.11.281.24.705.275 1.485.039.843.047 1.096.047 3.231s-.008 2.389-.047 3.232c-.035.78-.166 1.203-.275 1.485a2.47 2.47 0 0 1-.599.919c-.28.28-.546.453-.92.598-.28.11-.704.24-1.485.276-.843.038-1.096.047-3.232.047s-2.39-.009-3.233-.047c-.78-.036-1.203-.166-1.485-.276a2.478 2.478 0 0 1-.92-.598 2.48 2.48 0 0 1-.6-.92c-.109-.281-.24-.705-.275-1.485-.038-.843-.046-1.096-.046-3.233 0-2.136.008-2.388.046-3.231.036-.78.166-1.204.276-1.486.145-.373.319-.64.599-.92.28-.28.546-.453.92-.598.282-.11.705-.24 1.485-.276.738-.034 1.024-.044 2.515-.045v.002zm4.988 1.328a.96.96 0 1 0 0 1.92.96.96 0 0 0 0-1.92zm-4.27 1.122a4.109 4.109 0 1 0 0 8.217 4.109 4.109 0 0 0 0-8.217zm0 1.441a2.667 2.667 0 1 1 0 5.334 2.667 2.667 0 0 1 0-5.334z"/>
</symbol>

<symbol id="icon-youtube" xmlns="http://www.w3.org/2000/svg"  class="bi bi-youtube" viewBox="0 0 16 16">
  <path d="M8.051 1.999h.089c.822.003 4.987.033 6.11.335a2.01 2.01 0 0 1 1.415 1.42c.101.38.172.883.22 1.402l.01.104.022.26.008.104c.065.914.073 1.77.074 1.957v.075c-.001.194-.01 1.108-.082 2.06l-.008.105-.009.104c-.05.572-.124 1.14-.235 1.558a2.007 2.007 0 0 1-1.415 1.42c-1.16.312-5.569.334-6.18.335h-.142c-.309 0-1.587-.006-2.927-.052l-.17-.006-.087-.004-.171-.007-.171-.007c-1.11-.049-2.167-.128-2.654-.26a2.007 2.007 0 0 1-1.415-1.419c-.111-.417-.185-.986-.235-1.558L.09 9.82l-.008-.104A31.4 31.4 0 0 1 0 7.68v-.123c.002-.215.01-.958.064-1.778l.007-.103.003-.052.008-.104.022-.26.01-.104c.048-.519.119-1.023.22-1.402a2.007 2.007 0 0 1 1.415-1.42c.487-.13 1.544-.21 2.654-.26l.17-.007.172-.006.086-.003.171-.007A99.788 99.788 0 0 1 7.858 2h.193zM6.4 5.209v4.818l4.157-2.408L6.4 5.209z"/>
</symbol>

<symbol id="icon-twitter" xmlns="http://www.w3.org/2000/svg" class="bi bi-twitter" viewBox="0 0 16 16">
  <path d="M5.026 15c6.038 0 9.341-5.003 9.341-9.334 0-.14 0-.282-.006-.422A6.685 6.685 0 0 0 16 3.542a6.658 6.658 0 0 1-1.889.518 3.301 3.301 0 0 0 1.447-1.817 6.533 6.533 0 0 1-2.087.793A3.286 3.286 0 0 0 7.875 6.03a9.325 9.325 0 0 1-6.767-3.429 3.289 3.289 0 0 0 1.018 4.382A3.323 3.323 0 0 1 .64 6.575v.045a3.288 3.288 0 0 0 2.632 3.218 3.203 3.203 0 0 1-.865.115 3.23 3.23 0 0 1-.614-.057 3.283 3.283 0 0 0 3.067 2.277A6.588 6.588 0 0 1 .78 13.58a6.32 6.32 0 0 1-.78-.045A9.344 9.344 0 0 0 5.026 15z"/>
</symbol>

<symbol id="icon-map-pin" xmlns="http://www.w3.org/2000/svg" class="bi bi-geo-alt-fill" viewBox="0 0 16 16">
  <path d="M8 16s6-5.686 6-10A6 6 0 0 0 2 6c0 4.314 6 10 6 10zm0-7a3 3 0 1 1 0-6 3 3 0 0 1 0 6z"/>
</symbol>


<symbol id="icon-gitHub" xmlns="http://www.w3.org/2000/svg"  class="bi bi-github" viewBox="0 0 16 16">
  <path d="M8 0C3.58 0 0 3.58 0 8c0 3.54 2.29 6.53 5.47 7.59.4.07.55-.17.55-.38 0-.19-.01-.82-.01-1.49-2.01.37-2.53-.49-2.69-.94-.09-.23-.48-.94-.82-1.13-.28-.15-.68-.52-.01-.53.63-.01 1.08.58 1.23.82.72 1.21 1.87.87 2.33.66.07-.52.28-.87.51-1.07-1.78-.2-3.64-.89-3.64-3.95 0-.87.31-1.59.82-2.15-.08-.2-.36-1.02.08-2.12 0 0 .67-.21 2.2.82.64-.18 1.32-.27 2-.27.68 0 1.36.09 2 .27 1.53-1.04 2.2-.82 2.2-.82.44 1.1.16 1.92.08 2.12.51.56.82 1.27.82 2.15 0 3.07-1.87 3.75-3.65 3.95.29.25.54.73.54 1.48 0 1.07-.01 1.93-.01 2.2 0 .21.15.46.55.38A8.012 8.012 0 0 0 16 8c0-4.42-3.58-8-8-8z"/>
</symbol>

<symbol id="icon-x" xmlns="http://www.w3.org/2000/svg" width="1000" height="804"  class="bi bi-x-square-fill" viewBox="0 0 16 16">
  <path d="M2 0a2 2 0 0 0-2 2v12a2 2 0 0 0 2 2h12a2 2 0 0 0 2-2V2a2 2 0 0 0-2-2H2zm3.354 4.646L8 7.293l2.646-2.647a.5.5 0 0 1 .708.708L8.707 8l2.647 2.646a.5.5 0 0 1-.708.708L8 8.707l-2.646 2.647a.5.5 0 0 1-.708-.708L7.293 8 4.646 5.354a.5.5 0 1 1 .708-.708z"/>
</symbol>


<symbol  id="icon-emoji" xmlns="http://www.w3.org/2000/svg" width="16" height="16" fill="currentColor" class="bi bi-123" viewBox="0 0 16 16">
  <path d="M2.873 11.297V4.142H1.699L0 5.379v1.137l1.64-1.18h.06v5.961h1.174Zm3.213-5.09v-.063c0-.618.44-1.169 1.196-1.169.676 0 1.174.44 1.174 1.106 0 .624-.42 1.101-.807 1.526L4.99 10.553v.744h4.78v-.99H6.643v-.069L8.41 8.252c.65-.724 1.237-1.332 1.237-2.27C9.646 4.849 8.723 4 7.308 4c-1.573 0-2.36 1.064-2.36 2.15v.057h1.138Zm6.559 1.883h.786c.823 0 1.374.481 1.379 1.179.01.707-.55 1.216-1.421 1.21-.77-.005-1.326-.419-1.379-.953h-1.095c.042 1.053.938 1.918 2.464 1.918 1.478 0 2.642-.839 2.62-2.144-.02-1.143-.922-1.651-1.551-1.714v-.063c.535-.09 1.347-.66 1.326-1.678-.026-1.053-.933-1.855-2.359-1.845-1.5.005-2.317.88-2.348 1.898h1.116c.032-.498.498-.944 1.206-.944.703 0 1.206.435 1.206 1.07.005.64-.504 1.106-1.2 1.106h-.75v.96Z"/>
</symbol>


<symbol id="icon-logo" xmlns="http://www.w3.org/2000/svg" version="1.1" xmlns:xlink="http://www.w3.org/1999/xlink" xmlns:svgjs="http://svgjs.dev/svgjs" viewBox="0 0 1000 804"><g transform="matrix(1,0,0,1,-0.7303027803288842,0.3255060728744752)"><svg viewBox="0 0 307 247" data-background-color="#ffffff" preserveAspectRatio="xMidYMid meet" height="804" width="1000" xmlns="http://www.w3.org/2000/svg" xmlns:xlink="http://www.w3.org/1999/xlink"><defs></defs><g id="tight-bounds" transform="matrix(1,0,0,1,0.22420295356096176,-0.09999999999999432)"><svg viewBox="0 0 306.5515940928781 247.2" height="247.2" width="306.5515940928781"><g><svg viewBox="0 0 395.52000000000004 318.9431922196339" height="247.2" width="306.5515940928781"><g><svg viewBox="0 0 395.52000000000004 318.9431922196339" height="318.9431922196339" width="395.52000000000004"><g><svg viewBox="0 0 395.52000000000004 318.9431922196339" height="318.9431922196339" width="395.52000000000004"><g><svg viewBox="0 0 395.52000000000004 197.89053465346535" height="197.89053465346535" width="395.52000000000004"><g transform="matrix(1,0,0,1,0,0)"><svg width="395.52000000000004" viewBox="4 -37.900001525878906 75.75 37.900001525878906" height="197.89053465346535" data-palette-color="#66ff00"><path d="M29.05-30.2L13-30.2 13-21.9 26.55-21.9 26.55-14.2 13-14.2 13 0 4 0 4-37.9 29.05-37.9 29.05-30.2ZM35.05 0L35.05-37.9 44.05-37.9 44.05 0 35.05 0ZM79.75-37.9L79.75-30.2 69.4-30.2 69.4 0 60.4 0 60.4-30.2 50.05-30.2 50.05-37.9 79.75-37.9Z" opacity="1" transform="matrix(1,0,0,1,0,0)"  class="undefined-text-0" data-fill-palette-color="primary" id="text-0"></path></svg></g></svg></g><g transform="matrix(1,0,0,1,0,244.60774051231684)"><svg viewBox="0 0 232.209792 74.33545170731706" height="74.33545170731706" width="232.209792"><g transform="matrix(1,0,0,1,0,0)"><svg width="232.209792" viewBox="2.0999999046325684 -26.75 114.80000305175781 36.75" height="74.33545170731706" data-palette-color="#8bc53f"><path d="M25.35-26.5L29.9-26.5 29.9-3.6Q29.9 3.35 26.45 6.68 23 10 16.15 10L16.15 10Q12.4 10 9 8.97 5.6 7.95 3.5 6.05L3.5 6.05 5.8 2.35Q7.65 3.95 10.38 4.88 13.1 5.8 16 5.8L16 5.8Q20.65 5.8 22.88 3.6 25.1 1.4 25.1-3.1L25.1-3.1 25.1-5.2Q23.4-3.15 20.93-2.13 18.45-1.1 15.55-1.1L15.55-1.1Q11.75-1.1 8.68-2.73 5.6-4.35 3.85-7.28 2.1-10.2 2.1-13.95L2.1-13.95Q2.1-17.7 3.85-20.63 5.6-23.55 8.68-25.15 11.75-26.75 15.55-26.75L15.55-26.75Q18.55-26.75 21.13-25.65 23.7-24.55 25.35-22.4L25.35-22.4 25.35-26.5ZM16.1-5.3Q18.7-5.3 20.78-6.4 22.85-7.5 24.03-9.47 25.2-11.45 25.2-13.95L25.2-13.95Q25.2-17.8 22.65-20.18 20.1-22.55 16.1-22.55L16.1-22.55Q12.05-22.55 9.5-20.18 6.95-17.8 6.95-13.95L6.95-13.95Q6.95-11.45 8.13-9.47 9.3-7.5 11.38-6.4 13.45-5.3 16.1-5.3L16.1-5.3ZM58.95-26.5L63.75-26.5 63.75-3.6Q63.75 3.35 60.5 6.68 57.25 10 50.75 10L50.75 10Q47.2 10 43.97 8.97 40.75 7.95 38.7 6.05L38.7 6.05 41.05 2.35Q42.8 3.95 45.27 4.85 47.75 5.75 50.5 5.75L50.5 5.75Q54.85 5.75 56.9 3.58 58.95 1.4 58.95-3.1L58.95-3.1 58.95-5.05Q57.5-3.15 55.2-2.13 52.9-1.1 50.2-1.1L50.2-1.1Q44.9-1.1 41.85-4 38.8-6.9 38.8-12.6L38.8-12.6 38.8-26.5 43.6-26.5 43.6-13.15Q43.6-9.35 45.45-7.38 47.3-5.4 50.75-5.4L50.75-5.4Q54.55-5.4 56.75-7.7 58.95-10 58.95-14.2L58.95-14.2 58.95-26.5ZM106.05-26.75Q111.05-26.75 113.97-23.85 116.9-20.95 116.9-15.25L116.9-15.25 116.9 0 112.09 0 112.09-14.7Q112.09-18.55 110.32-20.5 108.55-22.45 105.25-22.45L105.25-22.45Q101.59-22.45 99.44-20.18 97.3-17.9 97.3-13.65L97.3-13.65 97.3 0 92.5 0 92.5-14.7Q92.5-18.55 90.72-20.5 88.94-22.45 85.64-22.45L85.64-22.45Q82-22.45 79.84-20.18 77.69-17.9 77.69-13.65L77.69-13.65 77.69 0 72.89 0 72.89-26.5 77.5-26.5 77.5-22.55Q78.94-24.6 81.3-25.68 83.64-26.75 86.64-26.75L86.64-26.75Q89.75-26.75 92.14-25.5 94.55-24.25 95.84-21.85L95.84-21.85Q97.34-24.15 100.02-25.45 102.69-26.75 106.05-26.75L106.05-26.75Z" opacity="1" transform="matrix(1,0,0,1,0,0)" fill="#8bc53f" class="undefined-text-1" data-fill-palette-color="secondary" id="text-1"></path></svg></g></svg></g></svg></g></svg></g></svg></g></svg><rect width="306.5515940928781" height="247.2" fill="none" stroke="none" visibility="hidden"></rect></g></svg></g></symbol>

<symbol id="icon-square" xmlns="http://www.w3.org/2000/svg"  class="bi bi-square-fill" viewBox="0 0 16 16">
  <path d="M0 2a2 2 0 0 1 2-2h12a2 2 0 0 1 2 2v12a2 2 0 0 1-2 2H2a2 2 0 0 1-2-2V2z"/>
</symbol>
</defs>
</svg>

